<?xml version="1.0" encoding="UTF-8"?> <svg xmlns="http://www.w3.org/2000/svg" xmlns:xlink="http://www.w3.org/1999/xlink" width="200px" height="200px" viewBox="0 0 200 200" version="1.1"><!-- Generator: Sketch 64 (93537) - https://sketch.com --><title>groceries</title><desc>Created with Sketch.</desc><g id="groceries" stroke="none" stroke-width="1" fill="none" fill-rule="evenodd"><g id="Group" transform="translate(14.000000, 30.000000)"><path d="M77.7526971,91.4677391 L77.7526971,91.4677391 C79.7182171,91.3405491 81.4427872,92.6851291 81.5960472,94.4610491 C82.5598472,106.039289 83.5354972,117.61753 84.4985072,129.19498 C84.6525573,130.97011 83.1689372,132.54379 81.2018372,132.68283 C79.2363171,132.81002 77.4991071,131.46544 77.3474271,129.67609 C76.383627,118.11286 75.406397,106.533039 74.442597,94.9547992 C74.290917,93.1788791 75.787967,91.6083591 77.7526971,91.4677391 Z M59.2880266,91.6462791 L59.2880266,91.6462791 C61.2416966,91.3792591 63.0800267,92.6092891 63.3857567,94.3717791 C65.3125667,105.848899 67.2535968,117.32523 69.1922568,128.80235 C69.4971968,130.56405 68.1407668,132.22621 66.1870968,132.49165 C64.2350067,132.7721 62.3950966,131.54128 62.1051666,129.77879 C60.1641366,118.30246 58.2238965,106.825339 56.2828665,95.3490092 C55.9913565,93.5849391 57.3359365,91.9243591 59.2880266,91.6462791 Z M40.8367861,91.8224491 L40.8367861,91.8224491 C42.7651761,91.4298191 44.7551862,92.6590591 45.2370862,94.5748091 L53.8101664,128.10557 C54.2912764,130.01974 53.1133864,131.90863 51.1857863,132.31469 C49.2455463,132.72154 47.2665962,131.48993 46.7720562,129.57576 L38.210826,96.0465792 C37.717076,94.1308291 38.897336,92.2285091 40.8367861,91.8224491 Z M114.656758,91.4677391 L114.656758,91.4677391 C112.691238,91.3405491 110.965088,92.6851291 110.813408,94.4610491 C109.849608,106.039289 108.873168,117.61753 107.909368,129.19498 C107.757688,130.97011 109.241308,132.54379 111.207618,132.68283 C113.184988,132.81002 114.910348,131.46544 115.062818,129.67609 C116.025828,118.11286 117.003058,106.533039 117.966858,94.9547992 C118.118538,93.1788791 116.634918,91.6083591 114.656758,91.4677391 Z M133.119849,91.6462791 L133.119849,91.6462791 C131.167759,91.3792591 129.329428,92.6092891 129.037128,94.3717791 C127.096888,105.848899 125.156648,117.32523 123.215618,128.80235 C122.925688,130.56405 124.268688,132.22621 126.222358,132.49165 C128.174448,132.7721 130.014358,131.54128 130.305078,129.77879 C132.245319,118.30246 134.186349,106.825339 136.126589,95.3490092 C136.417309,93.5849391 135.073519,91.9243591 133.119849,91.6462791 Z M151.571879,91.8224491 L151.571879,91.8224491 C149.644279,91.4298191 147.665329,92.6590591 147.172369,94.5748091 L138.598499,128.10557 C138.116599,130.01974 139.296859,131.90863 141.223669,132.31469 C143.163909,132.72154 145.142859,131.48993 145.638189,129.57576 L154.197049,96.0465792 C154.692379,94.1308291 153.512119,92.2285091 151.571879,91.8224491 Z M96.2047276,91.2891991 L96.2047276,91.2891991 C98.1836776,91.2891991 99.8055477,92.9134391 99.8055477,94.9050292 L99.8055477,129.24554 C99.8055477,131.23792 98.1836776,132.85979 96.2047276,132.85979 C94.2265675,132.85979 92.6031175,131.23792 92.6031175,129.24554 L92.6031175,94.9050292 C92.6031175,92.9134391 94.2265675,91.2891991 96.2047276,91.2891991 L96.2047276,91.2891991 Z" id="Fill-6" fill="#FFFFFF"></path><path d="M105.372678,63.2513083 C112.474778,87.0935089 111.040928,108.56334 102.189768,111.18851 C93.3386075,113.82553 80.4165771,96.6288092 73.3271169,72.7747586 C66.2384468,48.9341379 67.6588668,27.4643073 76.510027,24.8391372 C85.3619773,22.2013272 98.2840076,39.3972576 105.372678,63.2513083" id="Fill-7" fill="#E3B98D"></path><path d="M91.3849374,40.9195877 C91.8415574,42.4403377 88.0495573,44.9011878 82.9398372,46.4227278 C77.8158971,47.9450579 73.3010469,47.9576979 72.8452169,46.4361578 C72.3885969,44.9264678 76.180597,42.4537677 81.3037472,40.9314377 C86.4276873,39.4098976 90.9425374,39.4098976 91.3849374,40.9195877" id="Fill-8" fill="#FFE1BD"></path><path d="M95.0134075,53.093488 C95.4558075,54.6023881 91.6772374,57.0758781 86.5548773,58.5974182 C81.4309372,60.1189582 76.916877,60.1189582 76.459467,58.6100582 C76.015487,57.0877281 79.7940571,54.6276681 84.9179973,53.106128 C90.0411474,51.583798 94.5559975,51.571948 95.0134075,53.093488" id="Fill-9" fill="#FFE1BD"></path><path d="M98.6268676,65.2555383 C99.0842776,66.7770784 95.2922775,69.2371385 90.1683374,70.7586785 C85.0451873,72.2817985 80.5303371,72.2936485 80.0863571,70.7721085 C79.6297371,69.2489885 83.4209472,66.7889284 88.5314574,65.2673883 C93.6553975,63.7466383 98.1702476,63.7466383 98.6268676,65.2555383" id="Fill-10" fill="#FFE1BD"></path><path d="M102.241118,77.4167987 C102.697738,78.9383387 98.9065276,81.3983988 93.7825875,82.9207288 C88.6720774,84.4414789 84.1445872,84.4549089 83.7006072,82.9333688 C83.2447772,81.4244688 87.0351973,78.9628287 92.1591375,77.4294387 C97.2822876,75.9086886 101.797138,75.9086886 102.241118,77.4167987" id="Fill-11" fill="#FFE1BD"></path><path d="M105.868008,89.589909 C106.311988,91.099599 102.532628,93.5730891 97.4094776,95.0946292 C92.2855375,96.6161692 87.7706873,96.6161692 87.3140673,95.1072692 C86.8716673,93.5849391 90.6502374,91.125669 95.7725976,89.604919 C100.895748,88.081799 105.410598,88.068369 105.868008,89.589909" id="Fill-12" fill="#FFE1BD"></path><path d="M155.288039,16.760597 L155.288039,16.760597 L151.319079,15.758877 C147.489159,19.1448171 132.156049,30.6345774 131.257029,34.1848375 C130.482828,37.2666276 131.509039,40.3863377 133.703659,42.4032077 L133.601749,42.7831977 C130.723779,43.5194778 128.326128,45.7638678 127.540868,48.8448679 C126.754028,51.927448 127.795248,55.0455781 129.976438,57.0624481 L129.887168,57.4432281 C126.995768,58.1787182 124.598908,60.4238982 123.824708,63.5048983 C123.038658,66.5866884 124.079088,69.7063985 126.260278,71.7224785 L126.158368,72.1032585 C123.280398,72.8395386 120.882748,75.0839286 120.097488,78.1657187 C119.322498,81.2467188 120.351078,84.3656389 122.531478,86.3832989 L122.442998,86.7632889 C119.564238,87.499569 117.168168,89.743169 116.381328,92.8257491 C115.596068,95.9067492 116.634918,99.0248793 118.815318,101.043329 L132.980809,104.632299 L147.146299,108.23312 C150.025849,107.496839 152.421919,105.252449 153.208759,102.170659 C153.994019,99.0888693 152.954379,95.9707392 150.773189,93.9530791 L150.861669,93.5730891 C153.742009,92.8368091 156.149929,90.593209 156.924919,87.510629 C157.710179,84.4296289 156.670539,81.3099188 154.489349,79.2930487 L154.589679,78.9130587 C157.469229,78.1775687 159.865299,75.9315986 160.652139,72.8513886 C161.426339,69.7695985 160.397759,66.6498884 158.204719,64.6338083 L158.305839,64.2530283 C161.185389,63.5175383 163.581459,61.2731482 164.368299,58.1913582 C165.153559,55.1095681 164.114709,51.989858 161.932729,49.9737779 L162.021999,49.5929979 C164.912609,48.8575079 167.310259,46.6131178 168.08288,43.5313278 C168.98427,39.9802777 160.994999,22.5694672 159.244359,17.7631071 L155.288039,16.760597" id="Fill-13" fill="#DDF3FF"></path><path d="M137.469589,27.2612773 C134.224269,30.1526774 131.611739,32.7896975 131.257029,34.1848375 C130.482828,37.2666276 131.509039,40.3863377 133.703659,42.4032077 L133.601749,42.7831977 C130.723779,43.5194778 128.326128,45.7638678 127.540868,48.8448679 C126.754028,51.927448 127.795248,55.0455781 129.976438,57.0624481 L129.887168,57.4432281 C126.995768,58.1787182 124.598908,60.4238982 123.824708,63.5048983 C123.038658,66.5866884 124.079088,69.7063985 126.260278,71.7224785 L126.158368,72.1032585 C123.280398,72.8395386 120.882748,75.0839286 120.097488,78.1657187 C119.322498,81.2467188 120.351078,84.3656389 122.531478,86.3832989 L122.442998,86.7632889 C119.564238,87.499569 117.168168,89.743169 116.381328,92.8257491 C115.596068,95.9067492 116.634918,99.0248793 118.815318,101.043329 L132.980809,104.632299 L147.146299,108.23312 C150.025849,107.496839 152.421919,105.252449 153.208759,102.170659 C153.994019,99.0888693 152.954379,95.9707392 150.773189,93.9530791 L150.861669,93.5730891 C153.742009,92.8368091 156.149929,90.593209 156.924919,87.510629 C157.710179,84.4296289 156.670539,81.3099188 154.489349,79.2930487 L154.589679,78.9130587 C157.469229,78.1775687 159.865299,75.9315986 160.652139,72.8513886 C161.426339,69.7695985 160.397759,66.6498884 158.204719,64.6338083 L158.305839,64.2530283 C161.185389,63.5175383 163.581459,61.2731482 164.368299,58.1913582 C165.153559,55.1095681 164.114709,51.989858 161.932729,49.9737779 L162.021999,49.5929979 C164.912609,48.8575079 167.310259,46.6131178 168.08288,43.5313278 C168.43917,42.1243377 167.41059,38.5724976 165.927759,34.4771375 L137.469589,27.2612773" id="Fill-14" fill="#B4DBF1"></path><path d="M153.601389,4.96668671 L162.376709,7.19922677 C163.366579,7.45281678 163.975669,8.4545368 163.721289,9.44361683 L161.919299,16.533077 C161.667289,17.522157 160.664779,18.1296671 159.674909,17.8768671 L150.886949,15.645117 C149.897869,15.390737 149.302999,14.389807 149.555009,13.3999369 L151.356999,6.31126675 C151.597949,5.32297672 152.611519,4.7138867 153.601389,4.96668671" id="Fill-15" fill="#56A1D2"></path><path d="M52.5042964,103.820969 C51.5784164,103.756189 50.6525363,103.692199 49.7274463,103.629789 C48.8774063,105.417559 48.0407963,107.193479 47.2026062,108.98046 C47.6726562,110.0201 48.5345463,110.6047 49.7519363,110.78245 C50.6643863,108.46064 51.5902664,106.140409 52.5042964,103.820969" id="Fill-16" fill="#EDB81A"></path><path d="M27.3317357,30.3169974 C27.4699857,27.4263873 58.0208665,24.7506572 68.6724368,58.2545582 C78.9953671,91.8619491 52.3510364,107.053649 50.6019763,104.757909 C47.9515263,101.295339 60.1641366,90.834159 51.6550464,63.5815283 C43.1333161,36.3288976 27.1287057,34.6801675 27.3317357,30.3169974" id="Fill-17" fill="#EDB81A"></path><path d="M50.5506263,104.693129 C48.1032063,101.157089 60.1135766,90.669049 51.6550464,63.5815283 C43.1830861,36.4940076 27.3317357,34.7046575 27.3317357,30.3928374 C36.5889559,30.1021174 55.4715365,35.0222375 63.3968167,59.9032882 C71.0566569,84.8736089 58.3242265,99.6742593 50.5506263,104.693129" id="Fill-18" fill="#FFCA3A"></path><path d="M52.3012664,96.5284792 C54.4184664,90.149229 56.7402765,79.8642187 51.6550464,63.5815283 C46.5555962,47.2980479 38.795426,40.1588177 33.4186859,36.1124376 C41.6101961,39.8538777 50.2978263,47.6021979 55.0536264,62.5166083 C59.6443166,77.4799987 56.9038065,88.792799 52.3012664,96.5284792" id="Fill-19" fill="#FFDC7D"></path><path d="M52.5042964,103.820969 C51.6281864,104.135389 50.7536563,104.453759 49.8791263,104.757909 C49.8159263,106.736069 49.7653663,108.70159 49.7005863,110.66869 C50.5506263,111.44052 51.5784164,111.6317 52.7705264,111.30148 C52.6812564,108.81693 52.5935664,106.317369 52.5042964,103.820969" id="Fill-20" fill="#EDB81A"></path><path d="M0.0285449552,46.5246378 C-0.999245073,43.8236278 25.9239557,29.1509574 49.0930763,55.5914681 C71.9959669,82.2602888 53.6576964,106.850619 51.1344363,105.442049 C47.3179462,103.324059 54.3291964,88.842569 35.6117259,67.2842584 C16.9076854,45.7133078 1.588005,50.6081479 0.0285449552,46.5246378" id="Fill-21" fill="#EDB81A"></path><path d="M51.0704463,105.404919 C47.4056362,103.147099 54.2154364,88.716959 35.6117259,67.2842584 C17.0214454,45.8397078 1.777605,50.5441579 0.0648849562,46.6004778 C8.40965518,42.6315177 27.6982957,39.5750076 44.9202962,59.2183582 C61.9266266,79.0276087 56.1809565,97.6937292 51.0704463,105.404919" id="Fill-22" fill="#FFCA3A"></path><path d="M49.4106563,97.2252592 C48.7881363,90.517369 46.7965462,80.1691588 35.6117259,67.2842584 C24.4403356,54.3867181 14.4721153,50.950218 7.92775517,49.4033979 C16.9321754,49.5550779 27.9898057,53.181968 38.313526,64.9513883 C48.4958363,76.8195587 50.5261363,88.284829 49.4106563,97.2252592" id="Fill-23" fill="#FFDC7D"></path><path d="M58.1970365,126.34229 C57.6527265,125.39034 57.1708265,124.31199 56.7781965,123.10882 C52.9222064,111.28884 39.124856,108.88013 43.3861161,102.069539 C46.7720562,96.6809492 52.6180564,102.690479 61.0141766,104.592799 C68.7877768,110.66869 57.7917665,122.47524 58.1970365,126.34229" id="Fill-24" fill="#B1C54B"></path><path d="M78.9574471,124.36492 C72.7188169,134.35763 60.6199666,134.92722 56.7781965,123.10882 C52.9222064,111.28884 39.124856,108.88013 43.3861161,102.069539 C47.6592262,95.2597392 55.8388865,106.635739 68.1526168,104.947509 C80.4671371,103.261649 85.2213573,114.38327 78.9574471,124.36492" id="Fill-25" fill="#869C02"></path><path d="M78.9440171,124.38941 C72.6919569,134.35763 60.6199666,134.91537 56.7781965,123.10882 C53.3409064,112.54494 41.9530561,109.50028 42.6119161,104.110899 C47.6979363,100.065309 54.5590864,111.20036 66.5678768,110.9839 C75.952287,110.82037 80.3273071,117.23596 78.9440171,124.38941" id="Fill-26" fill="#95AA1D"></path><path d="M59.5558366,116.98237 C59.6940866,118.17527 60.0748666,121.80137 58.2728765,121.49722 C56.4732565,121.19307 55.1413165,117.68073 54.9643564,116.19711 C54.7866064,114.72455 56.7142065,115.34707 57.5642465,115.49875 C58.4134965,115.63937 59.4152166,115.80369 59.5558366,116.98237" id="Fill-27" fill="#D1D14C"></path><path d="M56.0419165,112.7851 C55.4462565,113.64699 53.2895564,113.47082 51.4520164,112.68319 C49.6136863,111.88529 46.6448662,110.0201 46.2008862,108.51199 C45.7569062,107.015729 48.0407963,108.08065 48.8774063,107.611389 C49.7005863,107.142129 49.0290863,105.772269 49.9683963,106.267599 C50.8942763,106.773989 52.7570964,108.22127 53.7975264,109.33675 C54.8505964,110.45223 56.6510065,111.92479 56.0419165,112.7851" id="Fill-28" fill="#B6B63A"></path><path d="M44.4763162,102.259139 C45.0727662,102.045049 44.8697362,103.629789 44.2108762,103.756189 C43.3608361,103.921299 43.5259461,102.613849 44.4763162,102.259139" id="Fill-29" fill="#839521"></path><path d="M44.5410962,102.640709 C44.6035062,103.071259 44.2985662,103.439399 43.9699261,103.388049 C42.8283761,102.576719 40.279046,99.9768293 39.098786,97.3516592 C39.225976,96.7812792 39.632036,96.4257792 40.266406,96.2101092 C40.7356661,99.1394293 42.9926961,101.168939 44.5410962,102.640709" id="Fill-30" fill="#2F2422"></path><path d="M56.8279665,104.897739 C57.0815565,104.998859 56.7268465,105.532109 56.4614065,105.379639 C56.1311865,105.177399 56.4219065,104.719199 56.8279665,104.897739" id="Fill-31" fill="#D1D14C"></path><path d="M55.3443465,104.554879 C55.0915465,104.453759 55.4462565,103.907869 55.7124865,104.072979 C56.0419165,104.276009 55.7630465,104.719199 55.3443465,104.554879" id="Fill-32" fill="#D1D14C"></path><path d="M57.3359365,106.405849 C57.0815565,106.305519 57.4252065,105.759629 57.6906465,105.924739 C58.0335065,106.127769 57.7419965,106.570959 57.3359365,106.405849" id="Fill-33" fill="#D1D14C"></path><path d="M57.7151365,105.353569 C57.9181665,105.543169 58.2618165,104.985429 57.9940065,104.821899 C57.6661565,104.606229 57.3857065,105.061269 57.7151365,105.353569" id="Fill-34" fill="#D1D14C"></path><path d="M58.9333166,106.950949 C58.6797265,106.850619 59.0225866,106.305519 59.2880266,106.469049 C59.6316766,106.673659 59.3393766,107.117639 58.9333166,106.950949" id="Fill-35" fill="#D1D14C"></path><path d="M59.0470766,105.329079 C59.3014566,105.429409 58.9467466,105.975299 58.6923665,105.810189 C58.3510865,105.607159 58.6425965,105.163969 59.0470766,105.329079" id="Fill-36" fill="#D1D14C"></path><path d="M60.0748666,107.9029 C60.3292466,108.0056 59.9729566,108.53648 59.7067266,108.3848 C59.3772966,108.18177 59.6561666,107.725149 60.0748666,107.9029" id="Fill-37" fill="#D1D14C"></path><path d="M55.8775965,108.42272 C56.0932665,108.39823 56.0806265,108.90462 55.8388865,108.90462 C55.5228865,108.90462 55.5339465,108.4875 55.8775965,108.42272" id="Fill-38" fill="#E2E15C"></path><path d="M49.9683963,104.238089 C50.1840663,104.059549 50.5008563,104.618079 50.2472663,104.771339 C49.9036163,104.985429 49.6381763,104.529599 49.9683963,104.238089" id="Fill-39" fill="#D1D14C"></path><path d="M53.4680964,107.015729 C53.3029864,107.066289 53.2524264,106.660229 53.4420264,106.635739 C53.6837664,106.597029 53.7208964,106.927249 53.4680964,107.015729" id="Fill-40" fill="#E2E15C"></path><path d="M55.1926665,106.559899 C55.4462565,106.660229 55.1033965,107.205329 54.8379564,107.041799 C54.4943064,106.837189 54.7866064,106.393209 55.1926665,106.559899" id="Fill-41" fill="#E2E15C"></path><path d="M59.3772966,104.416629 C59.6316766,104.516959 59.2761766,105.061269 59.0225866,104.897739 C58.6797265,104.693129 58.9712366,104.249939 59.3772966,104.416629" id="Fill-42" fill="#D1D14C"></path><path d="M59.5424066,105.797549 C59.7959966,105.900249 59.4412866,106.446139 59.1742666,106.292879 C58.8440466,106.077999 59.1229166,105.634019 59.5424066,105.797549" id="Fill-43" fill="#D1D14C"></path><path d="M60.9249066,105.532109 C61.1777066,105.634019 60.8356366,106.178329 60.5686166,106.013219 C60.2273366,105.810189 60.5188466,105.366999 60.9249066,105.532109" id="Fill-44" fill="#D1D14C"></path><path d="M64.3226967,107.75122 C64.5897167,107.661949 64.6655567,108.30896 64.3606167,108.34688 C63.9814167,108.41087 63.9047867,107.89105 64.3226967,107.75122" id="Fill-45" fill="#748800"></path><path d="M61.0765866,106.901179 C61.3309666,107.003879 60.9746766,107.535549 60.7218766,107.383079 C60.3790166,107.180839 60.6713166,106.723429 61.0765866,106.901179" id="Fill-46" fill="#D1D14C"></path><path d="M61.6596066,108.71502 C61.9131966,108.82878 61.5584866,109.36124 61.3048966,109.20798 C60.9628266,109.00653 61.2551266,108.54991 61.6596066,108.71502" id="Fill-47" fill="#D1D14C"></path><path d="M62.0538166,110.21207 C61.7994366,110.11095 62.1541466,109.56427 62.4085266,109.72938 C62.7498067,109.93241 62.4598767,110.37718 62.0538166,110.21207" id="Fill-48" fill="#D1D14C"></path><path d="M63.9814167,112.72111 C64.2468567,112.63421 64.3226967,113.27885 64.0185467,113.33178 C63.6377667,113.3934 63.5619267,112.86173 63.9814167,112.72111" id="Fill-49" fill="#748800"></path><path d="M57.0191465,111.72018 C57.1961065,111.78417 56.9551565,112.1768 56.7647665,112.06304 C56.5246065,111.90978 56.7268465,111.59457 57.0191465,111.72018" id="Fill-50" fill="#E2E15C"></path><path d="M51.7435264,107.041799 C51.5784164,107.090779 51.5270664,106.685509 51.7174564,106.660229 C51.9584064,106.623099 52.0089664,106.950949 51.7435264,107.041799" id="Fill-51" fill="#E2E15C"></path><path d="M55.7883265,109.65275 C55.9668665,109.72938 55.7124865,110.12201 55.5339465,110.00904 C55.2929965,109.85657 55.4960265,109.5382 55.7883265,109.65275" id="Fill-52" fill="#E2E15C"></path><path d="M65.1988067,111.36547 C65.5914367,111.22643 65.7186267,112.20129 65.2620067,112.27792 C64.6789867,112.36798 64.5636467,111.56771 65.1988067,111.36547" id="Fill-53" fill="#748800"></path><path d="M64.2089367,106.446139 C64.0059067,106.089849 64.9317867,105.772269 65.0968967,106.216249 C65.2999267,106.773989 64.5257267,107.028369 64.2089367,106.446139" id="Fill-54" fill="#D1D14C"></path><path d="M65.7051967,107.86498 C65.3757667,107.725149 65.8442367,107.003879 66.1870968,107.217969 C66.6445068,107.484989 66.2502968,108.0925 65.7051967,107.86498" id="Fill-55" fill="#748800"></path><path d="M64.7287567,109.06973 C64.4001167,108.94254 64.8685867,108.20626 65.2106567,108.42272 C65.6672767,108.70159 65.2746467,109.29883 64.7287567,109.06973" id="Fill-56" fill="#748800"></path><path d="M65.5408767,105.735139 C65.7051967,105.404919 66.3901268,105.924739 66.1491768,106.267599 C65.8442367,106.685509 65.2880767,106.267599 65.5408767,105.735139" id="Fill-57" fill="#748800"></path><path d="M61.8128666,106.875109 C61.8128666,106.597029 62.4464467,106.698149 62.4085266,107.003879 C62.3571766,107.394929 61.8247166,107.307239 61.8128666,106.875109" id="Fill-58" fill="#D1D14C"></path><path d="M67.9756568,106.469049 C67.6327968,106.330009 68.1028468,105.607159 68.4583468,105.810189 C68.9133868,106.089849 68.5207568,106.685509 67.9756568,106.469049" id="Fill-59" fill="#748800"></path><path d="M67.0371368,106.077999 C67.2915168,105.987149 67.3799968,106.623099 67.0750568,106.673659 C66.6824268,106.736069 66.6176468,106.202819 67.0371368,106.077999" id="Fill-60" fill="#748800"></path><path d="M68.4069968,107.394929 C68.2545268,107.167409 68.8509768,106.927249 68.9773768,107.205329 C69.1424868,107.573469 68.6479468,107.76307 68.4069968,107.394929" id="Fill-61" fill="#748800"></path><path d="M71.4508669,106.506969 C71.2976069,106.279449 71.9066969,106.039289 72.0204569,106.317369 C72.1855669,106.685509 71.6902369,106.875109 71.4508669,106.506969" id="Fill-62" fill="#748800"></path><path d="M69.9151069,112.39089 C69.7120768,112.30399 70.0043769,111.87186 70.2200469,112.01169 C70.4854869,112.1768 70.2453269,112.53151 69.9151069,112.39089" id="Fill-63" fill="#748800"></path><path d="M72.6674669,107.484989 C72.2993269,107.561619 72.2993269,106.698149 72.7053869,106.685509 C73.2378469,106.660229 73.2378469,107.372019 72.6674669,107.484989" id="Fill-64" fill="#748800"></path><path d="M69.1543368,108.25761 C69.1045668,107.89105 69.9664569,107.94161 69.9546069,108.35873 C69.9411769,108.88013 69.2301768,108.84142 69.1543368,108.25761" id="Fill-65" fill="#748800"></path><path d="M78.3238671,109.91898 C78.0963471,109.62905 78.8681771,109.23405 79.0585671,109.60219 C79.3121571,110.07303 78.6785771,110.38824 78.3238671,109.91898" id="Fill-66" fill="#748800"></path><path d="M71.2596869,105.201889 C71.5251269,105.114199 71.6033369,105.747779 71.2976069,105.797549 C70.9184069,105.862329 70.8425669,105.329079 71.2596869,105.201889" id="Fill-67" fill="#748800"></path><path d="M63.0665967,105.924739 C62.9283467,105.697219 63.5240067,105.455479 63.6377667,105.735139 C63.8028767,106.089849 63.3091267,106.292879 63.0665967,105.924739" id="Fill-68" fill="#D1D14C"></path><path d="M69.2183268,106.546469 C69.0666468,106.317369 69.6757368,106.077999 69.7894969,106.355289 C69.9546069,106.711579 69.4592768,106.913029 69.2183268,106.546469" id="Fill-69" fill="#748800"></path><path d="M69.6757368,105.924739 C69.3320868,105.785699 69.8013469,105.061269 70.1576369,105.276939 C70.5992469,105.558179 70.2200469,106.153839 69.6757368,105.924739" id="Fill-70" fill="#748800"></path><path d="M70.7019469,106.254959 C71.0945769,106.127769 71.2217669,107.090779 70.7659369,107.167409 C70.1694869,107.255889 70.0683669,106.457989 70.7019469,106.254959" id="Fill-71" fill="#748800"></path><path d="M69.8139869,107.193479 C70.0802169,107.104209 70.1694869,107.75122 69.8653369,107.80099 C69.4727068,107.86498 69.3952868,107.333309 69.8139869,107.193479" id="Fill-72" fill="#748800"></path><path d="M74.202437,106.164899 C74.467877,106.077999 74.545297,106.723429 74.239567,106.760559 C73.860367,106.825339 73.782947,106.305519 74.202437,106.164899" id="Fill-73" fill="#748800"></path><path d="M68.5073268,110.41431 C68.7617068,110.33847 68.8509768,110.97205 68.5468268,111.02182 C68.1526168,111.08581 68.0902068,110.55335 68.5073268,110.41431" id="Fill-74" fill="#748800"></path><path d="M69.2562468,115.24595 C69.3700068,115.1077 69.6623068,115.42291 69.5090468,115.57459 C69.3194468,115.75234 69.0784968,115.4869 69.2562468,115.24595" id="Fill-75" fill="#748800"></path><path d="M67.0371368,114.5863 C66.9992168,114.40934 67.4431968,114.38327 67.4558368,114.59894 C67.4676868,114.86438 67.1129768,114.8786 67.0371368,114.5863" id="Fill-76" fill="#748800"></path><path d="M65.8442367,112.49359 C65.8078967,112.31584 66.2384468,112.29056 66.2629368,112.50702 C66.2763668,112.77246 65.9082267,112.7851 65.8442367,112.49359" id="Fill-77" fill="#748800"></path><path d="M75.165447,110.90727 C74.810737,110.97205 74.810737,110.11095 75.216797,110.09594 C75.750047,110.07303 75.750047,110.7943 75.165447,110.90727" id="Fill-78" fill="#748800"></path><path d="M76.218517,110.04696 C76.167167,109.68988 77.030637,109.74281 77.017207,110.14808 C77.005357,110.67975 76.294357,110.63077 76.218517,110.04696" id="Fill-79" fill="#748800"></path><path d="M75.026407,109.18507 C74.975847,108.82878 75.838527,108.88013 75.825887,109.28619 C75.812457,109.81865 75.103037,109.7673 75.026407,109.18507" id="Fill-80" fill="#748800"></path><path d="M73.504077,108.81693 C73.3903169,108.47328 74.239567,108.34688 74.302767,108.75294 C74.404677,109.27276 73.695257,109.37467 73.504077,108.81693" id="Fill-81" fill="#748800"></path><path d="M75.698697,107.167409 C75.571507,106.825339 76.434187,106.698149 76.497387,107.104209 C76.599297,107.624029 75.888297,107.725149 75.698697,107.167409" id="Fill-82" fill="#748800"></path><path d="M72.4020269,105.797549 C72.2874769,105.455479 73.1375169,105.329079 73.2133569,105.735139 C73.3010469,106.254959 72.6050569,106.355289 72.4020269,105.797549" id="Fill-83" fill="#748800"></path><path d="M63.2317067,129.34666 C61.9511166,128.38286 59.6443166,126.34229 60.5188466,124.6035 C61.3933766,122.85444 64.3487667,123.0709 66.5038868,122.82837 C68.6479468,122.57636 72.8839269,120.58556 73.1999269,123.15859 C73.530147,125.71898 69.2056868,128.62539 67.3673568,129.75272 C65.5274467,130.89427 64.5138767,130.31046 63.2317067,129.34666" id="Fill-84" fill="#B6B63A"></path><polygon id="Fill-85" fill="#95AA1D" points="87.9113073 133.43175 150.608079 133.43175 150.608079 120.73803 87.9113073 120.73803"></polygon><polygon id="Fill-86" fill="#FFCD6B" points="95.2409275 120.73803 150.608079 120.73803 150.608079 112.39089 95.2409275 112.39089"></polygon><polygon id="Fill-87" fill="#FBB905" points="111.866478 112.39089 150.608079 112.39089 150.608079 108.23312 111.866478 108.23312"></polygon><path d="M77.7526971,91.4677391 L77.7526971,91.4677391 C79.7182171,91.3405491 81.4427872,92.6851291 81.5960472,94.4610491 C82.5598472,106.039289 83.5354972,117.61753 84.4985072,129.19498 C84.6525573,130.97011 83.1689372,132.54379 81.2018372,132.68283 C79.2363171,132.81002 77.4991071,131.46544 77.3474271,129.67609 C76.383627,118.11286 75.406397,106.533039 74.442597,94.9547992 C74.290917,93.1788791 75.787967,91.6083591 77.7526971,91.4677391 Z M59.2880266,91.6462791 L59.2880266,91.6462791 C61.2416966,91.3792591 63.0800267,92.6092891 63.3857567,94.3717791 C65.3125667,105.848899 67.2535968,117.32523 69.1922568,128.80235 C69.4971968,130.56405 68.1407668,132.22621 66.1870968,132.49165 C64.2350067,132.7721 62.3950966,131.54128 62.1051666,129.77879 C60.1641366,118.30246 58.2238965,106.825339 56.2828665,95.3490092 C55.9913565,93.5849391 57.3359365,91.9243591 59.2880266,91.6462791 Z M40.8367861,91.8224491 L40.8367861,91.8224491 C42.7651761,91.4298191 44.7551862,92.6590591 45.2370862,94.5748091 L53.8101664,128.10557 C54.2912764,130.01974 53.1133864,131.90863 51.1857863,132.31469 C49.2455463,132.72154 47.2665962,131.48993 46.7720562,129.57576 L38.210826,96.0465792 C37.717076,94.1308291 38.897336,92.2285091 40.8367861,91.8224491 Z M114.656758,91.4677391 L114.656758,91.4677391 C112.691238,91.3405491 110.965088,92.6851291 110.813408,94.4610491 C109.849608,106.039289 108.873168,117.61753 107.909368,129.19498 C107.757688,130.97011 109.241308,132.54379 111.207618,132.68283 C113.184988,132.81002 114.910348,131.46544 115.062818,129.67609 C116.025828,118.11286 117.003058,106.533039 117.966858,94.9547992 C118.118538,93.1788791 116.634918,91.6083591 114.656758,91.4677391 Z M133.119849,91.6462791 L133.119849,91.6462791 C131.167759,91.3792591 129.329428,92.6092891 129.037128,94.3717791 C127.096888,105.848899 125.156648,117.32523 123.215618,128.80235 C122.925688,130.56405 124.268688,132.22621 126.222358,132.49165 C128.174448,132.7721 130.014358,131.54128 130.305078,129.77879 C132.245319,118.30246 134.186349,106.825339 136.126589,95.3490092 C136.417309,93.5849391 135.073519,91.9243591 133.119849,91.6462791 Z M151.571879,91.8224491 L151.571879,91.8224491 C149.644279,91.4298191 147.665329,92.6590591 147.172369,94.5748091 L138.598499,128.10557 C138.116599,130.01974 139.296859,131.90863 141.223669,132.31469 C143.163909,132.72154 145.142859,131.48993 145.638189,129.57576 L154.197049,96.0465792 C154.692379,94.1308291 153.512119,92.2285091 151.571879,91.8224491 Z M96.2047276,91.2891991 L96.2047276,91.2891991 C98.1836776,91.2891991 99.8055477,92.9134391 99.8055477,94.9050292 L99.8055477,129.24554 C99.8055477,131.23792 98.1836776,132.85979 96.2047276,132.85979 C94.2265675,132.85979 92.6031175,131.23792 92.6031175,129.24554 L92.6031175,94.9050292 C92.6031175,92.9134391 94.2265675,91.2891991 96.2047276,91.2891991 Z M32.1365158,59.9799182 L160.310859,59.9799182 C164.392789,60.0044082 167.69025,63.7466383 167.69025,68.3618184 C167.69025,69.0980985 167.60098,69.8083085 167.4493,70.4932385 L152.916459,134.06612 L152.891179,134.16645 L152.878539,134.21701 C152.029289,137.76806 149.148949,140.39402 145.725089,140.39402 L46.6827862,140.39402 C43.2589261,140.39402 40.3809561,137.76806 39.530916,134.21701 L39.518276,134.16645 L39.492996,134.06612 L24.9601556,70.4932385 C24.8068956,69.8083085 24.7192056,69.0980985 24.7192056,68.3618184 C24.7192056,63.7466383 28.0166657,60.0044082 32.0993858,59.9799182 L32.1365158,59.9799182 L32.1365158,59.9799182 Z" id="Fill-88" fill="#F05B28"></path><path d="M29.9308358,59.9799182 L162.478619,59.9799182 C167.80401,59.9799182 172.15375,64.3296583 172.15375,69.6558385 L172.15375,74.0806286 C172.15375,79.4068087 167.80401,83.7581288 162.478619,83.7581288 L29.9308358,83.7581288 C24.6038656,83.7581288 20.2541255,79.4068087 20.2541255,74.0806286 L20.2541255,69.6558385 C20.2541255,64.3296583 24.6038656,59.9799182 29.9308358,59.9799182" id="Fill-89" fill="#FB7E55"></path><path d="M96.2047276,80.0933187 C100.985018,80.0933187 104.891568,76.1994086 104.891568,71.4048985 C104.891568,66.6246084 100.985018,62.7314883 96.2047276,62.7314883 C91.4244374,62.7314883 87.5170973,66.6246084 87.5170973,71.4048985 C87.5170973,76.1994086 91.4244374,80.0933187 96.2047276,80.0933187" id="Fill-90" fill="#FFFFFF"></path><path d="M127.413678,0.477906587 L127.413678,0.477906587 C130.267158,1.72057662 131.573819,5.08044671 130.317718,7.92207679 L101.466918,73.7006386 C100.211608,76.5541187 96.8635876,77.8607787 94.0116875,76.6054687 C91.1566274,75.3620086 89.8515474,72.0013485 91.1060674,69.1478685 L119.956868,3.38194667 C121.212968,0.528466588 124.560198,-0.778193447 127.413678,0.477906587" id="Fill-91" fill="#F05B28"></path></g></g></svg> 